<?xml version="1.0" encoding="UTF-8"?>
<svg version="1.1" xmlns="http://www.w3.org/2000/svg" width="512" height="512">
<path d="M0 0 C1.20902017 -0.00445784 2.41804034 -0.00891569 3.66369748 -0.01350862 C5.01747593 -0.01341931 6.37125438 -0.01322944 7.72503281 -0.01294994 C9.15378951 -0.01624764 10.58254528 -0.019973 12.01129985 -0.02409142 C15.95154499 -0.03413035 19.89177489 -0.03783125 23.83203101 -0.04048073 C28.07619232 -0.04437819 32.3203415 -0.0539569 36.56449509 -0.0626936 C46.8210993 -0.08247382 57.07770452 -0.09252618 67.33432305 -0.10142139 C72.16112147 -0.10580173 76.98791879 -0.11116919 81.81471634 -0.11641026 C97.85459923 -0.13342408 113.89448142 -0.14791906 129.93437195 -0.155159 C134.09862138 -0.15706898 138.2628708 -0.1589893 142.42712021 -0.16094494 C143.9796779 -0.16167055 143.9796779 -0.16167055 145.56360039 -0.16241082 C162.33685686 -0.17071409 179.11004209 -0.19605534 195.88326743 -0.22852562 C213.09345003 -0.26157088 230.30359638 -0.27960546 247.51381087 -0.28280324 C257.18098603 -0.28497068 266.84805728 -0.29375356 276.51520157 -0.31926441 C284.74695976 -0.34093685 292.97858882 -0.34903891 301.2103723 -0.33929763 C305.41163327 -0.33474286 309.61262764 -0.33670714 313.81385231 -0.35605907 C317.65941796 -0.37362003 321.50452111 -0.37275106 325.35009119 -0.35716178 C326.74178999 -0.3547749 328.13352023 -0.35916508 329.52517083 -0.37099043 C342.41093324 -0.47370912 342.41093324 -0.47370912 347.35143661 4.13422108 C351.64439489 8.87127849 351.4959089 13.59420793 351.46496201 19.74847889 C351.46510803 20.5098415 351.46525406 21.27120411 351.46540451 22.05563831 C351.46470917 24.56623679 351.45693448 27.0767606 351.44909286 29.58734608 C351.44722734 31.330408 351.44580407 33.07347045 351.44480515 34.81653309 C351.44099055 39.39994223 351.43116928 43.98331959 351.42010117 48.56671619 C351.40986432 53.24546345 351.40530265 57.92421585 351.40026474 62.60297108 C351.38954607 71.78006836 351.37248233 80.95714207 351.35143661 90.13422108 C340.90943636 95.41556759 340.90943636 95.41556759 335.90612411 97.52875233 C334.98347763 97.92223866 334.06083115 98.31572498 333.11022568 98.72113514 C332.15857529 99.1255785 331.2069249 99.53002186 330.22643661 99.94672108 C321.57397859 103.67456865 313.0852629 107.5736674 304.72448349 111.91302967 C301.89683169 113.36816489 299.05362389 114.79096727 296.21081161 116.21625233 C282.71079373 123.03656369 269.67140162 130.32582687 256.92174911 138.46625233 C256.06429627 139.01130861 255.20684343 139.5563649 254.32340717 140.11793804 C251.31773126 142.08684924 251.31773126 142.08684924 248.59637737 144.42369747 C239.35044497 151.81569646 231.92670589 152.4017038 220.35558701 152.20013905 C218.58016646 152.20255671 216.8047476 152.20898316 215.0293541 152.2190752 C210.2461178 152.23546299 205.46470747 152.1974225 200.68173909 152.14990091 C195.66239433 152.11036685 190.643211 152.1245117 185.62376022 152.13351917 C176.12894935 152.14304412 166.63484848 152.10954865 157.14019054 152.05814946 C140.12099373 151.96743084 123.10163049 151.95028142 106.08221811 151.94895566 C100.11342423 151.9467804 94.14507729 151.92572114 88.1764003 151.8887651 C84.46791564 151.86811576 80.75946412 151.85930598 77.05093002 151.85313702 C75.33281489 151.84756226 73.6147075 151.83676986 71.89666176 151.82035351 C69.54990097 151.79849796 67.20379131 151.79510842 64.85694504 151.79605579 C63.5446042 151.78897539 62.23226336 151.78189499 60.88015461 151.77460003 C55.6778721 152.30477849 52.47241027 153.8952502 48.97643661 157.75922108 C46.89876103 162.07439344 46.51646624 165.4280244 47.35143661 170.13422108 C49.60934465 174.65003715 51.86891049 176.90940911 56.35143661 179.13422108 C59.3135144 179.58832849 59.3135144 179.58832849 62.53339767 179.53294849 C63.77715164 179.54548664 65.02090561 179.55802479 66.30234909 179.57094288 C67.67263439 179.56976893 69.04291947 179.56830983 70.41320419 179.56659412 C71.86220764 179.57561428 73.31120345 179.58594213 74.76018906 179.59747791 C78.68747386 179.62504446 82.61461387 179.63433192 86.54198289 179.64033198 C90.64866636 179.64971657 94.75524172 179.67592003 98.86185837 179.70033741 C106.63547523 179.74400379 114.40907111 179.77254989 122.18277329 179.79566079 C131.03405268 179.82271173 139.88522331 179.8666233 148.73642504 179.91194952 C166.94137148 180.00479776 185.14634669 180.07647767 203.35143661 180.13422108 C201.15814166 184.84774207 197.76104965 188.38598417 194.31042099 192.21039295 C193.80704208 192.78209217 193.30366318 193.35379139 192.78503036 193.94281483 C192.24909256 194.53239979 191.71315475 195.12198475 191.16097641 195.72943592 C189.19710958 198.13464293 189.19710958 198.13464293 188.0066185 201.33990955 C186.01754965 205.48908799 184.2687625 208.60440941 180.35143661 211.13422108 C171.64425076 213.64619934 162.02160282 212.68365247 153.06628036 212.48187733 C150.36301612 212.46224996 147.65987933 212.46342853 144.95655441 212.46465015 C138.57627117 212.45663225 132.19842499 212.38606725 125.81892353 212.28968376 C114.40000702 212.11939844 102.98014916 212.06014659 91.56013209 212.0175485 C86.91530646 211.99741187 82.27213844 211.93539859 77.62778854 211.86201954 C75.19054333 211.83895829 72.75329268 211.81646212 70.31603622 211.79462147 C68.66920349 211.75644054 68.66920349 211.75644054 66.98910141 211.71748829 C60.29037892 211.6856183 56.06020399 212.55823592 50.35143661 216.13422108 C47.04927151 219.74596416 46.89414893 223.27530749 47.05846786 227.98578358 C47.64405684 232.2801027 50.0863965 235.41335431 53.35143661 238.13422108 C56.16051541 239.07058067 57.90372793 239.26879255 60.81229782 239.29243946 C61.72515045 239.30222828 62.63800308 239.3120171 63.57851791 239.32210255 C64.57761185 239.32785801 65.57670578 239.33361347 66.60607529 239.33954334 C67.65989899 239.34944294 68.71372269 239.35934254 69.79948044 239.36954212 C73.28943241 239.40117814 76.779398 239.42592295 80.26940536 239.45062733 C82.686508 239.47119503 85.10360703 239.49219145 87.52070236 239.51360035 C93.88781436 239.56883994 100.25495892 239.61824094 106.62212753 239.66644764 C113.11721322 239.71664885 119.61225153 239.77234212 126.10729599 239.82758045 C138.85530213 239.93518512 151.60334871 240.03681143 164.35143661 240.13422108 C163.87492413 241.89195754 163.39764369 243.64948584 162.92004013 245.40692616 C162.65433716 246.38567204 162.38863419 247.36441792 162.11487961 248.37282276 C160.95160366 252.58042998 159.63293218 256.73447404 158.31628036 260.89593983 C157.57854842 263.37197133 156.91119645 265.83074893 156.29113388 268.33661366 C155.98103378 269.5898241 155.67093369 270.84303455 155.35143661 272.13422108 C154.12226013 272.14008732 152.89308365 272.14595356 151.62665939 272.15199757 C140.04648155 272.20919444 128.46649205 272.28194033 116.88650608 272.36993599 C110.93301686 272.41467576 104.97959664 272.45392409 99.02599716 272.48065662 C93.28113564 272.50665336 87.53653916 272.54703041 81.79184151 272.59740734 C79.59942228 272.61410056 77.40695718 272.62559951 75.21448326 272.63183498 C72.14502382 272.64144918 69.07624623 272.66947707 66.00695419 272.70184803 C64.64533409 272.6996954 64.64533409 272.6996954 63.25620651 272.69749928 C57.03981963 272.79030119 53.74447928 273.99988572 49.03893661 278.19672108 C46.56456305 282.50396395 46.60492818 286.28191626 47.35143661 291.13422108 C49.25817355 295.50382656 50.58182535 296.78231772 54.92309189 298.76735401 C59.54614041 300.39599995 63.8394213 300.5749915 68.70495224 300.56659412 C69.60344894 300.57678577 70.50194565 300.58697742 71.42766953 300.59747791 C74.37107323 300.6274565 77.31415069 300.63685064 80.25768661 300.64593983 C82.30892633 300.66279773 84.36015578 300.68094947 86.41137314 300.70033741 C91.79036884 300.74772267 97.16932293 300.77760625 102.5484581 300.80377674 C108.04536784 300.83364021 113.54213438 300.88015065 119.03893661 300.9252367 C129.80969486 301.01113927 140.58048268 301.07854254 151.35143661 301.13422108 C151.68963528 304.98797685 152.02111992 308.84228236 152.35143661 312.69672108 C152.49452255 314.32577381 152.49452255 314.32577381 152.64049911 315.9877367 C152.77585068 317.57811756 152.77585068 317.57811756 152.91393661 319.20062733 C152.99772568 320.16943836 153.08151474 321.1382494 153.16784286 322.13641834 C153.37231964 325.47520862 153.38065972 328.79000152 153.35143661 332.13422108 C152.1495369 332.13786671 150.94763718 332.14151234 149.70931625 332.14526844 C138.37959162 332.18221819 127.05013878 332.2399909 115.72062111 332.31812382 C109.89605079 332.35762389 104.07163223 332.38980011 98.24694443 332.40521717 C92.62521359 332.42036685 87.00389992 332.45478298 81.38235474 332.5025301 C79.23821387 332.51736121 77.09401346 332.52526308 74.94982147 332.52610493 C71.94505778 332.52847106 68.9414502 332.55552315 65.93688583 332.58832264 C65.05143585 332.58329227 64.16598587 332.57826191 63.25370407 332.57307911 C57.80407344 332.66504631 54.68209457 333.51814032 50.35143661 337.13422108 C47.19016331 340.82237327 46.82368887 344.21350831 47.00378036 348.91937733 C47.56168258 352.47365322 48.96248772 354.49380388 51.35143661 357.13422108 C56.5888033 360.51255278 61.09478183 360.57615824 67.12047958 360.56659412 C68.08695923 360.57678577 69.05343887 360.58697742 70.04920578 360.59747791 C73.2307378 360.62757351 76.41196854 360.63686877 79.59362411 360.64593983 C81.80466332 360.66278902 84.01569296 360.68093959 86.22671127 360.70033741 C92.03646481 360.74781716 97.84617955 360.7776398 103.65606308 360.80377674 C109.588453 360.83359233 115.52070932 360.88011929 121.45299911 360.9252367 C133.0857417 361.01124689 144.7185118 361.07860249 156.35143661 361.13422108 C155.97148733 361.57143388 155.59153805 362.00864668 155.20007515 362.45910835 C151.94330665 366.22888846 148.83401161 370.07654404 145.76794052 374.00409412 C137.45321577 384.12428379 129.44174161 392.98666054 115.83746338 394.35203838 C108.24435263 394.84419208 100.6539123 394.51615649 93.06744003 394.07086658 C88.35323228 393.82086793 83.63343313 393.73962273 78.91415977 393.63602448 C75.25111682 393.55313411 71.59502536 393.44599166 67.93575668 393.25746632 C66.63224258 393.19979588 65.32872849 393.14212543 63.98571396 393.08270741 C62.84564896 393.02142155 61.70558395 392.96013569 60.53097153 392.89699268 C55.48790014 393.27326146 52.33946 395.04219523 48.97643661 398.75922108 C46.89876103 403.07439344 46.51646624 406.4280244 47.35143661 411.13422108 C49.60427704 415.63990193 51.8423007 417.96859767 56.35143661 420.13422108 C58.99532532 420.42824306 61.40296949 420.56507263 64.04406357 420.55414295 C64.80247543 420.5626125 65.5608873 420.57108204 66.34228134 420.57980824 C68.84159899 420.60314583 71.34029962 420.60420102 73.83971786 420.60297108 C75.58460865 420.61007591 77.32949711 420.61777538 79.07438278 420.62604237 C82.73019529 420.63948066 86.38579189 420.64105947 90.04162216 420.63519764 C94.71232391 420.62930977 99.38198323 420.65985768 104.05248356 420.70031452 C107.65662278 420.72624721 111.26051309 420.72906377 114.86473274 420.72542286 C116.58582994 420.72710969 118.30693918 420.73670997 120.02794456 420.75456715 C132.70069357 421.16860793 132.70069357 421.16860793 143.35143661 415.13422108 C144.00739319 414.52407154 144.66334976 413.913922 145.33918381 413.28528309 C147.53051132 411.15551679 149.63023157 408.95907838 151.72643661 406.73578358 C153.30368738 405.1060308 154.88183922 403.47714967 156.46081161 401.84906483 C158.91961129 399.29709893 161.37067895 396.73888804 163.80651474 394.1649828 C166.1763697 391.66827313 168.57357595 389.20068625 170.97643661 386.73578358 C172.05804062 385.57038548 172.05804062 385.57038548 173.16149521 384.38144398 C178.18474286 379.28322357 178.18474286 379.28322357 181.50237656 378.8595171 C183.61022568 379.10272694 183.61022568 379.10272694 187.35143661 380.13422108 C188.12197372 380.2823827 188.89251083 380.43054432 189.68639755 380.58319569 C190.62660751 380.80761341 190.62660751 380.80761341 191.58581161 381.03656483 C236.97359974 391.45277621 284.27810775 384.97252241 324.06676865 360.0880785 C331.23951638 355.46706456 338.05462322 350.46009607 344.71471786 345.13031483 C346.915122 343.4645274 348.88398694 342.31099467 351.35143661 341.13422108 C351.42154165 361.74432657 351.47443214 382.35441239 351.50687313 402.96461296 C351.52233693 412.53445454 351.54341716 422.104222 351.57775497 431.674016 C351.60767221 440.01579842 351.62701516 448.35752716 351.6337021 456.69936174 C351.63761041 461.11562842 351.64678538 465.53174152 351.66862679 469.94795895 C351.68902866 474.10690895 351.69526295 478.2656425 351.69075966 482.42463779 C351.69158321 483.94880125 351.69752686 485.47297215 351.70905304 486.99709225 C351.72405568 489.08371943 351.72036273 491.1695373 351.71220016 493.25618458 C351.71496554 494.4222527 351.71773092 495.58832083 351.7205801 496.78972435 C351.14821042 501.97548163 349.69822758 505.88597579 345.78893661 509.50922108 C342.07707022 511.98379868 340.15529381 512.26085856 335.70287323 512.26844215 C334.49385306 512.2729 333.28483289 512.27735784 332.03917575 512.28195077 C330.6853973 512.28186147 329.33161885 512.2816716 327.97784042 512.2813921 C326.54908372 512.28468979 325.12032795 512.28841515 323.69157338 512.29253358 C319.75132824 512.3025725 315.81109834 512.3062734 311.87084222 512.30892289 C307.62668091 512.31282034 303.38253173 512.32239905 299.13837814 512.33113575 C288.88177393 512.35091598 278.62516871 512.36096834 268.36855018 512.36986354 C263.54175176 512.37424388 258.71495444 512.37961135 253.88815689 512.38485241 C237.848274 512.40186623 221.80839181 512.41636121 205.76850128 512.42360115 C201.60425185 512.42551113 197.44000243 512.42743145 193.27575302 512.42938709 C192.24071456 512.42987083 191.2056761 512.43035457 190.13927284 512.43085297 C173.36601637 512.43915625 156.59283114 512.46449749 139.8196058 512.49696777 C122.6094232 512.53001304 105.39927685 512.54804762 88.18906236 512.55124539 C78.5218872 512.55341284 68.85481595 512.56219571 59.18767166 512.58770657 C50.95591347 512.609379 42.72428441 512.61748107 34.49250093 512.60773978 C30.29123996 512.60318501 26.09024559 512.60514929 21.88902092 512.62450123 C18.04345527 512.64206219 14.19835212 512.64119321 10.35278204 512.62560394 C8.96108324 512.62321705 7.569353 512.62760724 6.1777024 512.63943259 C-6.78008179 512.74272539 -6.78008179 512.74272539 -11.64856339 508.13422108 C-15.64303556 502.62460429 -15.79530927 497.71344992 -15.77999115 491.07433414 C-15.78204378 490.25156593 -15.78409642 489.42879771 -15.78621125 488.58109713 C-15.79189482 485.80624874 -15.79042233 483.03144977 -15.78900528 480.25659657 C-15.79158813 478.25419233 -15.79460107 476.2517886 -15.79800868 474.2493856 C-15.80609124 468.73270046 -15.80786895 463.21602832 -15.80860615 457.69933796 C-15.81045451 451.75509255 -15.81800072 445.81085393 -15.82474136 439.86661243 C-15.83904287 426.18432355 -15.84485228 412.50203564 -15.84943331 398.81974099 C-15.8517689 392.05929336 -15.8553715 385.29884659 -15.85912869 378.53839962 C-15.87196412 355.39913368 -15.88268355 332.25986822 -15.88613129 309.12059879 C-15.88635292 307.66796638 -15.8865747 306.21533397 -15.88679664 304.76270156 C-15.88701728 303.30655141 -15.88723776 301.85040126 -15.88745809 300.39425111 C-15.88790064 297.47293901 -15.88834775 294.55162692 -15.88879776 291.63031483 C-15.88890715 290.9059989 -15.88901654 290.18168296 -15.88912925 289.43541807 C-15.89276038 265.94617489 -15.90868259 242.45696257 -15.93198812 218.96773121 C-15.95658007 194.13657374 -15.97030382 169.30543391 -15.9714992 144.47426391 C-15.97167066 141.74882268 -15.97188609 139.02338147 -15.97213364 136.29794025 C-15.97218941 135.62685451 -15.97224517 134.95576876 -15.97230263 134.26434708 C-15.9734536 123.46147177 -15.98447945 112.65862811 -15.99902069 101.85576349 C-16.01338181 90.99905067 -16.01637219 80.14238038 -16.00858071 69.28566077 C-16.00466702 63.40322802 -16.00563895 57.52090182 -16.01963806 51.63848209 C-16.03233364 46.25466353 -16.0312177 40.87103208 -16.01904735 35.48721394 C-16.01708282 33.5383463 -16.02020351 31.58946559 -16.02889171 29.64061633 C-16.03995023 26.99267412 -16.03251973 24.34539623 -16.02050018 21.69747257 C-16.02809538 20.93992019 -16.03569057 20.1823678 -16.04351592 19.40185928 C-15.99101526 14.04838639 -14.86244985 10.02632723 -12.64856339 5.13422108 C-8.37679859 1.07083505 -5.7933642 0.00986756 0 0 Z M47.97643661 97.82172108 C45.87264359 102.11022225 45.53455258 105.44345399 46.35143661 110.13422108 C48.75978946 115.2399291 52.17218953 118.03984996 57.35143661 120.13422108 C60.49676558 120.67522196 63.57001811 120.67207297 66.75573349 120.63593006 C67.67210083 120.64133305 68.58846817 120.64673603 69.53260422 120.65230274 C72.54546569 120.66475499 75.55736502 120.64832211 78.57018661 120.63031483 C80.67333654 120.6304699 82.77648675 120.63196019 84.87963486 120.63472462 C89.28100896 120.63610705 93.68205657 120.62357642 98.08337021 120.60077381 C103.71568632 120.57238994 109.34746021 120.57512874 114.97981644 120.58786392 C119.32078276 120.59482993 123.6616245 120.58702123 128.00257492 120.5746069 C130.07893521 120.57010138 132.15530891 120.56974771 134.23167038 120.57367229 C137.13710417 120.57659351 140.04179945 120.56003373 142.94713974 120.53827381 C143.79929565 120.54277546 144.65145157 120.54727711 145.52943039 120.55191517 C152.32540599 120.46765462 157.06688292 119.22011793 162.22643661 114.50922108 C164.86004358 110.32643355 165.65155171 107.05081252 165.35143661 102.13422108 C163.52669216 96.76136241 160.40341591 93.66021072 155.35143661 91.13422108 C152.27109808 91.01970042 149.21287112 90.96633241 146.13171005 90.95721912 C145.17545227 90.95064793 144.21919449 90.94407673 143.2339592 90.9373064 C140.05957593 90.91754603 136.88524004 90.90590436 133.71081161 90.89593983 C132.627911 90.8918643 131.54501038 90.88778877 130.42929459 90.88358974 C124.69712641 90.86271677 118.96498226 90.84842067 113.23278427 90.83905506 C107.30988397 90.82799143 101.38735944 90.79359527 95.46459198 90.75388336 C90.91266809 90.72774427 86.36083405 90.71936559 81.80884171 90.71577358 C79.62556293 90.7109002 77.44228837 90.69926494 75.25908279 90.68073559 C72.20199919 90.65640354 69.14589198 90.65729864 66.0887413 90.66425037 C64.73722725 90.64503529 64.73722725 90.64503529 63.35840988 90.62543201 C56.45138217 90.68264037 52.64180088 92.5424931 47.97643661 97.82172108 Z " fill="#000000" transform="translate(41.648563385009766,-0.13422107696533203)"/>
<path d="M0 0 C3.40628587 3.01920793 5.72897727 5.95204152 6.75 10.4375 C6.57317767 19.34376144 3.34000189 27.58956582 0.5 35.9375 C0.23533936 36.72317352 -0.02932129 37.50884705 -0.30200195 38.31832886 C-23.81569294 108.00319294 -23.81569294 108.00319294 -32.25 116.4375 C-49.60386831 117.98740625 -62.62983952 111.72107761 -77.25 103.4375 C-75.37324201 98.55792922 -71.28805306 95.37941848 -67.59375 91.859375 C-64.04917806 88.41905517 -61.57014423 85.99449614 -60.94921875 81.03515625 C-60.87189422 74.20730746 -60.87189422 74.20730746 -64.25 68.4375 C-67.90256444 65.32207739 -71.16259104 65.06715661 -75.7734375 64.94140625 C-82.69032655 66.32696604 -87.52532864 71.28815468 -92.28686523 76.13378906 C-92.95113022 76.79761597 -93.6153952 77.46144287 -94.29978943 78.14538574 C-96.47658502 80.32425831 -98.6425824 82.51353608 -100.80859375 84.703125 C-102.32250878 86.22263984 -103.83709094 87.74149028 -105.35231018 89.25970459 C-109.32584437 93.2446571 -113.29028396 97.23853826 -117.25286865 101.234375 C-121.30307701 105.31534906 -125.36186091 109.38777455 -129.41992188 113.4609375 C-137.37167613 121.44480277 -145.31384444 129.43813117 -153.25 137.4375 C-165.0363726 125.99334915 -169.26305691 104.02493459 -170.25 88.4375 C-170.33486036 72.39889248 -170.33486036 72.39889248 -167.25 66.4375 C-164.53478335 64.08210733 -161.53223126 62.31392621 -158.4375 60.5 C-157.5196875 59.94787842 -156.601875 59.39575684 -155.65625 58.8269043 C-143.17129293 51.44333862 -130.21984551 44.91582951 -117.25 38.4375 C-116.31720215 37.96715332 -115.3844043 37.49680664 -114.42333984 37.01220703 C-20.8042643 -10.00205015 -20.8042643 -10.00205015 0 0 Z " fill="#000000" transform="translate(479.25,96.5625)"/>
<path d="M0 0 C0.15855469 1.17433594 0.31710937 2.34867188 0.48046875 3.55859375 C3.39206619 24.1206739 8.95556502 45.35087441 21.40234375 62.42578125 C23 65 23 65 22.79007053 66.94812393 C21.86471545 69.35134474 20.77939554 70.59026005 18.95652771 72.40423584 C18.30726318 73.05762436 17.65799866 73.71101288 16.98905945 74.38420105 C16.27264786 75.08982681 15.55623627 75.79545258 14.81811523 76.52246094 C13.6913588 77.6498745 13.6913588 77.6498745 12.5418396 78.80006409 C10.05446839 81.28534345 7.5566357 83.75982519 5.05859375 86.234375 C3.33301148 87.95436275 1.60808989 89.67501357 -0.11619568 91.39630127 C-4.65852173 95.92716732 -9.20978466 100.44895266 -13.76293945 104.96893311 C-18.40661417 109.58193211 -23.04181883 114.2034244 -27.67773438 118.82421875 C-36.77686518 127.89116497 -45.88517123 136.9488362 -55 146 C-56.91535842 143.12696237 -57.29291996 142.2416472 -57.6328125 139.0078125 C-57.71692383 138.22720459 -57.80103516 137.44659668 -57.88769531 136.64233398 C-57.96600586 135.81161377 -58.04431641 134.98089355 -58.125 134.125 C-58.2502002 132.83734741 -58.2502002 132.83734741 -58.37792969 131.52368164 C-61.95943934 92.5181179 -50.00923122 53.90786363 -24.97338867 23.76123047 C-4.8099139 0 -4.8099139 0 0 0 Z " fill="#000000" transform="translate(281,188)"/>
<path d="M0 0 C3.56896637 1.36467159 6.67791818 2.96904468 9.90844727 5.02099609 C21.93924525 12.64172429 34.35802436 18.01062003 48.4375 20.39453125 C49.283125 20.59433594 50.12875 20.79414063 51 21 C51.495 21.99 51.495 21.99 52 23 C51.21142578 24.77172852 51.21142578 24.77172852 49.9453125 26.87890625 C49.49542969 27.63494141 49.04554688 28.39097656 48.58203125 29.16992188 C47.86080078 30.35424805 47.86080078 30.35424805 47.125 31.5625 C46.41537109 32.75262695 46.41537109 32.75262695 45.69140625 33.96679688 C42.18620069 39.81379931 42.18620069 39.81379931 41 41 C38.85613343 41.15858842 36.70733162 41.25129298 34.55859375 41.31640625 C32.60083008 41.37924805 32.60083008 41.37924805 30.60351562 41.44335938 C29.2148467 41.48317608 27.82617478 41.52288825 26.4375 41.5625 C25.04490817 41.60567989 23.65232972 41.649294 22.25976562 41.69335938 C18.83995199 41.79985876 15.42006237 41.90186923 12 42 C12.33845947 42.67579102 12.67691895 43.35158203 13.02563477 44.04785156 C14.5502896 47.1092554 16.05653102 50.1793641 17.5625 53.25 C18.09552734 54.31347656 18.62855469 55.37695312 19.17773438 56.47265625 C19.92700195 58.00986328 19.92700195 58.00986328 20.69140625 59.578125 C21.39052124 60.99206543 21.39052124 60.99206543 22.10375977 62.43457031 C23.08778971 65.25129237 23.1575661 66.29270838 22 69 C20.27904347 71.22728754 18.54654886 73.33314327 16.6875 75.4375 C15.71165542 76.56069065 14.73638601 77.68438131 13.76171875 78.80859375 C13.05293579 79.61611084 13.05293579 79.61611084 12.32983398 80.43994141 C11.12887369 81.84881534 10.00435971 83.32198905 8.890625 84.80078125 C4.67749974 89.70158605 -1.98210655 90.1551424 -8.125 90.8125 C-30.2326501 92.01930552 -52.23323055 83.07264058 -71 72 C-66.98788275 67.18916998 -62.79404277 62.65327503 -58.35205078 58.23852539 C-57.71719254 57.60352112 -57.08233429 56.96851685 -56.42823792 56.31427002 C-54.35296051 54.23968296 -52.27417599 52.16864927 -50.1953125 50.09765625 C-48.74635295 48.65056401 -47.29761568 47.20324916 -45.84909058 45.75572205 C-42.0537669 41.96419893 -38.25544869 38.17568979 -34.45648193 34.38781738 C-30.57332841 30.5149311 -26.69303805 26.63917848 -22.8125 22.76367188 C-15.21112017 15.17298592 -7.60657116 7.58548351 0 0 Z " fill="#000000" transform="translate(380,220)"/>
<path d="M0 0 C3.51076565 1.20967517 6.58272666 3.07353897 9.75590515 4.96690369 C23.09136929 12.65696518 36.73846585 17.87027407 51.49906921 22.17515564 C53.5907602 22.8924344 55.48831241 23.81338097 57.44340515 24.84190369 C38.47126157 38.16277045 13.30062175 43.7955075 -9.55659485 44.84190369 C-10.38546204 44.88315369 -11.21432922 44.92440369 -12.0683136 44.96690369 C-18.24869803 45.1183373 -24.35014912 44.57209016 -30.49409485 43.96690369 C-31.32368713 43.88851257 -32.15327942 43.81012146 -33.00801086 43.72935486 C-34.19028259 43.60330872 -34.19028259 43.60330872 -35.3964386 43.47471619 C-36.10147522 43.40140076 -36.80651184 43.32808533 -37.53291321 43.25254822 C-39.79496807 42.7935331 -41.51706816 41.90257118 -43.55659485 40.84190369 C-38.31498475 35.46132683 -33.05725723 30.09696152 -27.77844715 24.75288296 C-25.32779732 22.27090836 -22.8830426 19.78366014 -20.45088196 17.28355408 C-17.65502157 14.41008267 -14.83526282 11.56116327 -12.0136261 8.71299744 C-11.14260757 7.8110112 -10.27158905 6.90902496 -9.37417603 5.97970581 C-8.55370285 5.15877945 -7.73322968 4.33785309 -6.88789368 3.49205017 C-6.17063614 2.76146896 -5.4533786 2.03088776 -4.71438599 1.27816772 C-2.55659485 -0.15809631 -2.55659485 -0.15809631 0 0 Z " fill="#000000" transform="translate(289.5565948486328,313.15809631347656)"/>
</svg>
